<?xml version="1.0" encoding="UTF-8"?>
<svg id="_图层_2" data-name="图层 2" xmlns="http://www.w3.org/2000/svg" viewBox="0 0 161.95 165.46">
  <defs>
    <style>
      .cls-1, .cls-2, .cls-3 {
        fill: #fff;
      }

      .cls-4 {
        fill: #3e3a39;
      }

      .cls-4, .cls-5, .cls-6, .cls-7, .cls-3, .cls-8 {
        fill-rule: evenodd;
      }

      .cls-5 {
        stroke: #000;
        stroke-width: .22px;
      }

      .cls-5, .cls-2, .cls-9, .cls-3 {
        stroke-miterlimit: 10;
      }

      .cls-5, .cls-9 {
        fill: none;
      }

      .cls-2, .cls-9, .cls-3 {
        stroke: #fff;
        stroke-width: .5px;
      }

      .cls-6 {
        fill: #d0111e;
      }

      .cls-7 {
        fill: #003692;
      }
    </style>
  </defs>
  <g id="BXS_图标" data-name="BXS 图标">
    <g id="_双剑" data-name="双剑">
      <path class="cls-6" d="M161.07,.47c-2.29-1.62-4.2,1.18-6.05,4.57,.44-.44-14.9,21.31-21.61,24.85l-1.25,2.8s-14.68-7.6-19.18-7.89l-1.18,8.85s7.6-.96,15.12,2.8L42.25,150.12l-5.38,15.34,13.42-9.29L136.29,43.55c5.68,6.2,6.86,13.79,6.86,13.79l8.26-3.61c-1.62-4.2-12.98-16.15-12.98-16.15l2.51-2.07c3.76-9.07,17.63-28.4,17.41-27.88,0,0,5.75-4.72,2.73-7.15Z"/>
      <path class="cls-7" d="M.88,.47C3.16-1.15,5.08,1.65,6.93,5.05c-.44-.44,14.9,21.31,21.61,24.85l1.25,2.8s14.68-7.6,19.18-7.89l1.18,8.85s-7.6-.96-15.12,2.8l84.67,113.65,5.38,15.34-13.42-9.29L25.66,43.55c-5.68,6.2-6.86,13.79-6.86,13.79l-8.26-3.61c1.62-4.2,12.98-16.15,12.98-16.15l-2.51-2.07C17.25,26.43,3.39,7.11,3.61,7.63,3.61,7.63-2.15,2.91,.88,.47Z"/>
    </g>
    <g id="_盾牌_内框_" data-name="盾牌（内框）">
      <path id="_盾牌_左_" data-name="盾牌（左）" class="cls-8" d="M23.26,67.11c-.07-14.01,.3-14.6,6.2-17.18,19.84-8.92,48.01-18.22,51.7-18.22h.15V162.62c-.3,.07-.59,.15-.96,.3-60.85-21.68-56.86-60.85-57.09-95.81Z"/>
      <path id="_盾牌_右_" data-name="盾牌（右）" class="cls-4" d="M138.69,68.14c.07-14.01-.3-14.6-6.2-17.18-19.84-8.92-48.01-18.22-51.63-18.22h-.15V163.65c.3,.07,.66,.15,.89,.3,60.85-21.68,56.86-60.85,57.09-95.81Z"/>
    </g>
    <g id="_盾牌_外框_" data-name="盾牌（外框）">
      <path class="cls-8" d="M138.69,66.93c.07-14.01-.3-14.6-6.2-17.18-19.25-8.63-46.32-17.63-51.18-18.14v-.07h-.3v3.47h.3c4.57,.52,30.24,9.07,48.46,17.18,5.61,2.51,5.97,3.02,5.9,16.37-.22,33.04,3.61,70.21-54.14,90.72-.15-.07-.3-.15-.52-.22h0v3.47h0c.22,.07,.44,.15,.59,.22,60.85-21.68,56.86-60.85,57.09-95.81ZM81.01,31.52h-.3v.07c-4.94,.52-32.01,9.51-51.26,18.14-5.9,2.58-6.27,3.17-6.2,17.18,.22,34.96-3.76,74.12,57.09,95.81l.66-.22v-3.47c-.22,.07-.37,.15-.59,.22-57.75-20.5-53.91-57.68-54.14-90.72-.07-13.35,.3-13.87,5.9-16.37,18.22-8.11,43.88-16.67,48.6-17.18h.22v-3.47Z"/>
      <path class="cls-5" d="M138.69,66.93c.07-14.01-.3-14.6-6.2-17.18-19.25-8.63-46.32-17.63-51.18-18.14v-.07h-.59v.07c-4.94,.52-32.01,9.51-51.26,18.14-5.9,2.58-6.27,3.17-6.2,17.18,.22,34.96-3.76,74.12,57.09,95.81l.66-.22c.22,.07,.44,.15,.59,.22,60.85-21.68,56.86-60.85,57.09-95.81h0Zm-3.02,1.62c.07-13.35-.3-13.87-5.9-16.37-18.22-8.11-43.88-16.67-48.46-17.18h-.52c-4.72,.52-30.39,9.07-48.6,17.18-5.61,2.51-5.97,3.02-5.9,16.37,.22,33.04-3.61,70.21,54.14,90.72,.22-.07,.37-.15,.59-.22,.22,.07,.37,.15,.52,.22,57.75-20.5,53.91-57.68,54.14-90.72Z"/>
    </g>
    <g id="BXS_全称" data-name="BXS 全称">
      <path class="cls-1" d="M36.92,121.73c.92-.04,1-.22,1-1.03v-4.09c-.02-.8-.06-.98-.92-1.02v-.15h2.49c1.43,0,1.98,.52,1.98,1.42s-.86,1.31-1.32,1.43v.02c.9,.13,1.78,.67,1.78,1.65,0,.71-.36,1.21-.99,1.55-.52,.27-1.17,.36-1.95,.36h-2.05v-.14Zm2.29-3.48c1.14,0,1.62-.48,1.62-1.29,0-.45-.16-1.3-1.67-1.3-.33,0-.49,.01-.56,.02-.07,0-.12,.03-.12,.23v2.35h.74Zm-.74,.22v2.29c0,.68,.13,.88,.94,.88,1.01,0,1.8-.39,1.8-1.52s-.82-1.65-2.01-1.65h-.73Z"/>
      <path class="cls-1" d="M46.46,121.1c-.61,.7-1.3,.89-1.54,.89-1.21,0-1.96-.96-1.96-2.05,0-1.51,1.23-2.44,2.06-2.44,.88,0,1.52,.72,1.52,1.45,0,.21-.01,.24-.17,.27-.16,.03-1.48,.14-2.9,.18-.01,1.56,.92,2.12,1.63,2.12,.35,0,.72-.07,1.24-.56l.11,.15Zm-2.93-2.03c.24,0,1.68-.02,2.13-.03,.26,0,.26-.1,.26-.16,0-.58-.43-1.09-1.17-1.09-.51,0-1.06,.45-1.21,1.28Z"/>
      <path class="cls-1" d="M47.62,120.48c.19,.66,.66,1.28,1.28,1.28,.43,0,.82-.25,.82-.81s-.35-.81-.85-1.02c-.65-.25-1.22-.59-1.22-1.23s.57-1.22,1.47-1.21c.37,0,.62,.08,.8,.16,.07,.24,.16,.75,.19,1.04l-.14,.06c-.17-.51-.55-1.04-1.08-1.04s-.76,.35-.76,.76c0,.5,.5,.75,.91,.91,.72,.28,1.22,.65,1.22,1.31,0,.82-.75,1.28-1.54,1.28-.53,0-.97-.18-1.11-.34-.07-.16-.12-.79-.15-1.12l.15-.05Z"/>
      <path class="cls-1" d="M53.04,121.88c-.19,.1-.3,.11-.42,.11-.58,0-.85-.41-.85-1.11v-2.95h-.74l-.03-.11,.28-.22h.49v-.56l.35-.7h.14s0,1.26,0,1.26h1.23s.03,.08,.03,.12c0,.07-.03,.14-.1,.21h-1.16v2.67c0,.83,.28,1.01,.62,1.01s.6-.14,.71-.21l.08,.15-.63,.32Z"/>
      <path class="cls-1" d="M60.17,121.1c-.61,.7-1.3,.89-1.54,.89-1.21,0-1.96-.96-1.96-2.05,0-1.51,1.23-2.44,2.06-2.44,.88,0,1.52,.72,1.52,1.45,0,.21-.01,.24-.17,.27-.16,.03-1.48,.14-2.9,.18-.01,1.56,.92,2.12,1.63,2.12,.35,0,.72-.07,1.24-.56l.11,.15Zm-2.93-2.03c.24,0,1.68-.02,2.13-.03,.26,0,.26-.1,.26-.16,0-.58-.43-1.09-1.17-1.09-.51,0-1.06,.45-1.21,1.28Z"/>
      <path class="cls-1" d="M61.05,115.45h2.28v.14c-.51,.05-.71,.1-.71,.25,0,.07,.05,.17,.14,.31,.36,.58,.84,1.23,1.35,1.92,.61-.85,1.28-1.83,1.28-2.14,0-.2-.21-.28-.71-.34v-.14h2.34v.14c-.79,.09-.96,.3-1.43,.87-.14,.18-.48,.62-1.36,1.83,.63,.89,1.29,1.83,1.74,2.43,.46,.66,.75,.94,1.48,1.02v.13h-2.37v-.13c.41-.05,.64-.12,.64-.31,0-.07-.03-.14-.08-.25-.29-.45-1.07-1.55-1.66-2.35-.63,.94-1.06,1.67-1.43,2.3-.06,.12-.1,.21-.1,.29,0,.19,.2,.27,.68,.31v.14h-2.28v-.14c.61-.07,.87-.28,1.18-.62,.1-.08,.55-.7,1.8-2.52-.59-.86-1.15-1.69-1.4-2-.51-.74-.59-.91-1.38-1.01v-.14Z"/>
      <path class="cls-1" d="M71.9,120.95c-.43,.58-1.14,1.04-1.76,1.04-1.25,0-2.04-.99-2.04-1.98,0-1.91,1.82-2.52,2.55-2.52,.28,0,1.1,.17,1.1,.5,0,.16-.21,.36-.35,.36-.04,0-.08-.03-.14-.08-.36-.28-.7-.37-1.22-.37-.62,0-1.38,.48-1.38,1.67,.01,1.47,1.06,1.93,1.73,1.93,.49,0,.85-.12,1.4-.7l.12,.14Z"/>
      <path class="cls-1" d="M72.62,121.73c.66-.05,.76-.19,.76-.78v-2.13c0-.66-.07-.71-.66-.81v-.13c.43-.09,.76-.21,1.15-.41v3.49c0,.6,.1,.73,.77,.78v.14h-2.02v-.14Zm1.41-6.1c0,.21-.17,.41-.39,.41s-.39-.2-.39-.41c0-.25,.18-.43,.39-.43,.24,0,.39,.21,.39,.43Z"/>
      <path class="cls-1" d="M77.31,121.88c-.19,.1-.3,.11-.42,.11-.58,0-.85-.41-.85-1.11v-2.95h-.74l-.03-.11,.28-.22h.49v-.56l.35-.7h.14s0,1.26,0,1.26h1.23s.03,.08,.03,.12c0,.07-.03,.14-.1,.21h-1.16v2.67c0,.83,.28,1.01,.62,1.01s.6-.14,.71-.21l.08,.15-.63,.32Z"/>
      <path class="cls-1" d="M82.05,121.1c-.61,.7-1.3,.89-1.54,.89-1.21,0-1.96-.96-1.96-2.05,0-1.51,1.23-2.44,2.06-2.44,.88,0,1.52,.72,1.52,1.45,0,.21-.01,.24-.17,.27-.16,.03-1.48,.14-2.9,.18-.01,1.56,.92,2.12,1.63,2.12,.35,0,.72-.07,1.24-.56l.11,.15Zm-2.93-2.03c.24,0,1.68-.02,2.13-.03,.26,0,.26-.1,.26-.16,0-.58-.43-1.09-1.17-1.09-.51,0-1.06,.45-1.21,1.28Z"/>
      <path class="cls-1" d="M85.84,115.14c.53-.07,1.16-.25,1.37-.35v6.04c0,.5,.12,.61,.46,.65l.37,.03v.12c-.23,.04-.85,.17-1.32,.36v-.73l-.6,.33c-.6,.32-.93,.4-1.06,.4-.88,0-1.95-.74-1.95-2.06-.02-1.34,1.14-2.43,2.7-2.43,.23,0,.63,.03,.9,.11v-1.52c0-.7-.08-.73-.87-.81v-.13Zm.87,3.18c-.3-.37-.81-.53-1.36-.53-.66,0-1.65,.37-1.65,1.86,0,1.17,.77,1.88,1.68,1.88,.62-.01,1.05-.34,1.33-.55v-2.65Z"/>
      <path class="cls-1" d="M94.62,116.94c-.17-.6-.42-1.41-1.42-1.41-.74,0-1.11,.48-1.11,1.15,0,.86,.63,1.2,1.29,1.54,.45,.23,1.71,.67,1.71,1.95,0,1.07-.82,1.84-2.12,1.86-.42-.02-.78-.08-1.04-.16-.25-.08-.38-.15-.44-.2-.08-.27-.19-1.01-.25-1.62h.16c.16,.55,.61,1.72,1.81,1.72,.79,0,1.27-.43,1.27-1.34,0-1.04-.84-1.39-1.39-1.69-.09-.05-1.6-.53-1.6-1.79,0-.85,.7-1.65,1.91-1.65,.34,0,.64,.03,1.2,.22,.04,.35,.09,.73,.16,1.43h-.17Z"/>
      <path class="cls-1" d="M99.67,121.1c-.61,.7-1.3,.89-1.54,.89-1.21,0-1.96-.96-1.96-2.05,0-1.51,1.23-2.44,2.06-2.44,.88,0,1.52,.72,1.52,1.45,0,.21,0,.24-.17,.27-.17,.03-1.48,.14-2.9,.18,0,1.56,.92,2.12,1.63,2.12,.35,0,.72-.07,1.24-.56l.11,.15Zm-2.93-2.03c.24,0,1.68-.02,2.13-.03,.26,0,.26-.1,.26-.16,0-.58-.43-1.09-1.17-1.09-.51,0-1.06,.45-1.21,1.28Z"/>
      <path class="cls-1" d="M104.51,120.95c-.43,.58-1.14,1.04-1.76,1.04-1.25,0-2.04-.99-2.04-1.98,0-1.91,1.82-2.52,2.55-2.52,.28,0,1.1,.17,1.1,.5,0,.16-.21,.36-.35,.36-.04,0-.08-.03-.14-.08-.36-.28-.7-.37-1.22-.37-.62,0-1.38,.48-1.38,1.67,.01,1.47,1.06,1.93,1.73,1.93,.49,0,.85-.12,1.4-.7l.12,.14Z"/>
      <path class="cls-1" d="M106.41,120.22c0,1.03,.49,1.29,1.07,1.29,.41,0,.9-.21,1.33-.64v-2.26c0-.61-.14-.65-.51-.72l-.39-.06v-.11c.44,0,1.14-.11,1.4-.18v3.35c0,.51,.11,.56,.51,.6l.31,.02v.14c-.42,.05-.86,.21-1.26,.35l-.05-.05v-.79c-.27,.19-.52,.42-.88,.61-.3,.17-.51,.22-.78,.22-.62,0-1.23-.32-1.23-1.46v-1.9c0-.61-.15-.66-.37-.72l-.33-.07v-.1c.24-.02,1-.14,1.22-.19-.03,.21-.03,.56-.03,1.33v1.35Z"/>
      <path class="cls-1" d="M110.82,121.73c.63-.04,.73-.19,.73-.83v-2.01c0-.75-.07-.81-.71-.88v-.12c.42-.08,.83-.21,1.2-.43v1.25h.02c.25-.55,.8-1.21,1.3-1.21,.31,0,.5,.27,.5,.43,0,.2-.21,.38-.36,.38-.04,0-.07-.01-.09-.05-.15-.14-.24-.22-.43-.22-.28,0-.68,.46-.95,1.21v1.67c0,.64,.09,.77,.91,.81v.14h-2.14v-.14Z"/>
      <path class="cls-1" d="M114.51,121.73c.66-.05,.76-.19,.76-.78v-2.13c0-.66-.07-.71-.66-.81v-.13c.43-.09,.76-.21,1.15-.41v3.49c0,.6,.1,.73,.77,.78v.14h-2.02v-.14Zm1.41-6.1c0,.21-.17,.41-.39,.41-.21,0-.39-.2-.39-.41,0-.25,.18-.43,.39-.43,.24,0,.39,.21,.39,.43Z"/>
      <path class="cls-1" d="M119.21,121.88c-.19,.1-.3,.11-.42,.11-.58,0-.85-.41-.85-1.11v-2.95h-.74l-.03-.11,.28-.22h.49v-.56l.35-.7h.14s0,1.26,0,1.26h1.23s.03,.08,.03,.12c0,.07-.03,.14-.1,.21h-1.16v2.67c0,.83,.28,1.01,.62,1.01s.6-.14,.71-.21l.08,.15-.63,.32Z"/>
      <path class="cls-1" d="M120.03,117.61h1.88v.14c-.36,.07-.53,.13-.53,.34,0,.06,.02,.15,.07,.26l1.11,2.73c.15-.32,1.15-2.42,1.15-2.94,0-.27-.17-.33-.6-.39v-.14h1.92v.14c-.58,.07-.62,.2-.94,.74-.31,.52-.68,1.37-1.53,3.12-.75,1.54-1.03,2.12-1.17,2.67-.05,.15-.16,.21-.3,.21-.25,0-.46-.21-.46-.42,0-.14,.11-.22,.26-.32,.75-.51,1.26-1.87,1.26-1.98,0-.12-.61-1.82-1.19-3.24-.23-.52-.3-.68-.94-.78v-.14Z"/>
    </g>
    <g id="BXS_标志" data-name="BXS 标志">
      <g>
        <path class="cls-1" d="M55.53,64.05c1.92,.07,3.61,.07,4.94,.22l10.47,15.86c-.15,.3-.3,.52-.44,.81-1.11,1.7-2.66,3.02-4.57,3.91,2.73,.81,4.79,2.14,6.27,4.06,.15,.22,.37,.44,.52,.74l-12.24,18.66c-1.33,.07-2.95,.07-4.94,.15v-5.75c2.95-.07,4.79-.15,5.68-.37,1.48-.3,2.73-1.03,3.69-2.14s1.4-2.66,1.4-4.57c0-1.62-.37-2.95-1.03-4.13-.81-1.11-1.84-1.92-3.25-2.43-1.11-.44-3.25-.66-6.49-.74v-5.09c1.77-.07,2.95-.07,3.54-.15,1.77-.22,3.17-.89,4.13-1.99,1.03-1.03,1.55-2.43,1.55-4.2,0-1.62-.44-3.02-1.33-4.06-.89-1.11-2.14-1.7-3.91-1.92-.59-.07-1.92-.15-3.98-.15v-6.71Zm-18.44,0h18.44v6.71c-1.33-.07-2.95-.07-4.79-.07h-5.97v12.54h10.77v5.09h-10.77v14.38h10.77v5.75h-18.44v-44.4Z"/>
        <path class="cls-9" d="M37.09,64.05h17.77c2.21,0,4.06,.07,5.61,.22l10.47,15.86c-.15,.3-.3,.52-.44,.81-1.11,1.7-2.66,3.02-4.57,3.91,2.73,.81,4.79,2.14,6.27,4.06,.15,.22,.37,.44,.52,.74l-12.24,18.66c-1.92,.07-4.72,.15-8.26,.15h-15.12v-44.4h0Zm7.67,24.26v14.38h9.44c3.69,0,5.97-.15,7.01-.37,1.48-.3,2.73-1.03,3.69-2.14s1.4-2.66,1.4-4.57c0-1.62-.37-2.95-1.03-4.13-.81-1.11-1.84-1.92-3.25-2.43s-4.43-.74-9-.74h-8.26Zm0-17.63v12.54h6.79c3.98,0,6.49-.07,7.52-.15,1.77-.22,3.17-.89,4.13-1.99,1.03-1.03,1.55-2.43,1.55-4.2,0-1.62-.44-3.02-1.33-4.06-.89-1.11-2.14-1.7-3.91-1.92-1.03-.15-3.98-.22-8.78-.22h-5.97Z"/>
      </g>
      <path class="cls-2" d="M107.23,108.45c-2.21,0-4.28-.22-6.12-.59l-9.59-14.6h4.28c0,5.16,4.13,9.29,11.36,9.29,1.62,0,3.02-.22,4.28-.52,1.25-.37,2.29-.81,3.1-1.48,.81-.59,1.48-1.25,1.92-2.07,.37-.81,.59-1.77,.59-2.73s-.15-1.84-.44-2.43-.96-1.18-1.92-1.62c-.89-.52-2.21-.96-3.84-1.4-1.7-.44-3.84-1.03-6.49-1.7-2.58-.66-4.87-1.25-6.71-1.92-1.92-.59-3.47-1.33-4.65-2.21-1.25-.89-2.14-1.99-2.66-3.32l-.07-.07,10.99-16.59c1.4-.3,2.95-.44,4.5-.44,11.58,0,17.55,5.53,17.77,13.5h-7.89c-.3-3.98-3.39-7.52-9.29-7.52-1.25,0-2.51,.15-3.61,.37-1.11,.3-2.07,.59-2.95,1.11-.81,.44-1.4,1.03-1.92,1.77-.44,.66-.66,1.48-.66,2.36s.07,1.55,.3,2.07,.74,1.03,1.55,1.48c.81,.52,1.99,.81,3.61,1.33,1.62,.44,3.76,.96,6.49,1.62,2.66,.59,5.02,1.25,6.93,1.92,1.99,.66,3.61,1.48,4.94,2.43,1.25,.96,2.21,2.07,2.88,3.47,.59,1.33,.96,3.02,.96,5.09,0,1.92-.44,3.69-1.25,5.31s-1.99,3.02-3.54,4.28c-1.48,1.18-3.32,2.14-5.53,2.8-2.14,.74-4.57,1.03-7.3,1.03Z"/>
      <polygon class="cls-3" points="61.95 64.05 70.06 64.05 80.9 80.13 91.6 64.05 99.78 64.05 84.88 86.25 99.78 108.45 91.6 108.45 80.9 92.3 70.06 108.45 61.95 108.45 76.84 86.25 61.95 64.05"/>
    </g>
  </g>
</svg>